<svg width="20" height="20" viewBox="0 0 20 20" fill="none" xmlns="http://www.w3.org/2000/svg">
<g id="24-hours-support">
<path id="Path 19506" d="M18.8966 13.0068L16.7897 10.902C15.772 9.8852 14.2004 9.80089 13.2864 10.7141L12.5692 11.4306C12.279 11.7206 11.7174 11.6493 11.3428 11.2751L9.36926 9.30342C8.94345 8.87803 8.96099 8.33233 9.21358 8.07999L9.93082 7.36344C10.8832 6.41201 10.7252 4.84334 9.74283 3.86184L7.63595 1.75694C6.61824 0.740274 5.0467 0.655969 4.13269 1.56916L2.56038 3.13992C1.0371 4.66172 0.800625 6.90374 1.97189 8.71887C2.95387 10.2408 8.82104 16.1183 11.8046 18.2178C13.6586 19.5223 16.0473 19.5427 17.5123 18.0791L19.0847 16.5084C20.037 15.557 19.879 13.9882 18.8966 13.0068ZM18.1685 15.5914L16.5962 17.1622C15.6133 18.1442 13.9496 18.1422 12.5505 17.1578C9.72593 15.1702 3.97486 9.43251 3.06102 8.01617C2.21627 6.70707 2.37938 5.153 3.47646 4.05701L5.04877 2.4862C5.49256 2.04284 6.25318 2.20785 6.71978 2.67402L8.82666 4.77886C9.3909 5.3426 9.3753 6.08614 9.01465 6.44654L8.29745 7.16304C7.47146 7.98818 7.5882 9.35643 8.45313 10.2205L10.4267 12.1922C11.3022 13.0669 12.6757 13.1566 13.4854 12.3477L14.2026 11.6312C14.6114 11.2227 15.3611 11.307 15.8736 11.8191L17.9805 13.9239C18.547 14.4897 18.5271 15.2331 18.1685 15.5914Z" fill="#707177" stroke="#707177" stroke-width="0.5"/>
</g>
</svg>
