<svg width="17" height="18" viewBox="0 0 17 18" fill="none" xmlns="http://www.w3.org/2000/svg">
<g id="calendar">
<g id="Group 969">
<g id="Group 968">
<circle id="Ellipse 223" cx="13.05" cy="7.02759" r="0.75" fill="#ADADAD"/>
<circle id="Ellipse 236" cx="13.05" cy="10.0276" r="0.75" fill="#ADADAD"/>
<circle id="Ellipse 237" cx="13.05" cy="13.0276" r="0.75" fill="#ADADAD"/>
<circle id="Ellipse 224" cx="10.05" cy="7.02759" r="0.75" fill="#ADADAD"/>
<circle id="Ellipse 234" cx="10.05" cy="10.0276" r="0.75" fill="#ADADAD"/>
<circle id="Ellipse 235" cx="10.05" cy="13.0276" r="0.75" fill="#ADADAD"/>
<path id="Path 3483" d="M16.3359 11.9651C16.7027 11.9651 17 11.6678 17 11.301V4.26196C17 2.79731 15.8084 1.60571 14.3438 1.60571H13.4805V0.94165C13.4805 0.574889 13.1832 0.277588 12.8164 0.277588C12.4496 0.277588 12.1523 0.574889 12.1523 0.94165V1.60571H9.13086V0.94165C9.13086 0.574889 8.83356 0.277588 8.4668 0.277588C8.10004 0.277588 7.80273 0.574889 7.80273 0.94165V1.60571H4.81445V0.94165C4.81445 0.574889 4.51715 0.277588 4.15039 0.277588C3.78363 0.277588 3.48633 0.574889 3.48633 0.94165V1.60571H2.65625C1.19159 1.60571 0 2.79731 0 4.26196V14.6213C0 16.086 1.19159 17.2776 2.65625 17.2776H14.3438C15.8084 17.2776 17 16.086 17 14.6213C17 14.2546 16.7027 13.9573 16.3359 13.9573C15.9692 13.9573 15.6719 14.2546 15.6719 14.6213C15.6719 15.3537 15.0761 15.9495 14.3438 15.9495H2.65625C1.92392 15.9495 1.32812 15.3537 1.32812 14.6213V4.26196C1.32812 3.52963 1.92392 2.93384 2.65625 2.93384H3.48633V3.5979C3.48633 3.96466 3.78363 4.26196 4.15039 4.26196C4.51715 4.26196 4.81445 3.96466 4.81445 3.5979V2.93384H7.80273V3.5979C7.80273 3.96466 8.10003 4.26196 8.4668 4.26196C8.83356 4.26196 9.13086 3.96466 9.13086 3.5979V2.93384H12.1523V3.5979C12.1523 3.96466 12.4496 4.26196 12.8164 4.26196C13.1832 4.26196 13.4805 3.96466 13.4805 3.5979V2.93384H14.3438C15.0761 2.93384 15.6719 3.52963 15.6719 4.26196V11.301C15.6719 11.6678 15.9692 11.9651 16.3359 11.9651Z" fill="#ADADAD"/>
<circle id="Ellipse 226" cx="4.04999" cy="7.02759" r="0.75" fill="#ADADAD"/>
<circle id="Ellipse 230" cx="4.04999" cy="10.0276" r="0.75" fill="#ADADAD"/>
<circle id="Ellipse 231" cx="4.04999" cy="13.0276" r="0.75" fill="#ADADAD"/>
<circle id="Ellipse 229" cx="7.04999" cy="7.02759" r="0.75" fill="#ADADAD"/>
<circle id="Ellipse 232" cx="7.04999" cy="10.0276" r="0.75" fill="#ADADAD"/>
<circle id="Ellipse 233" cx="7.04999" cy="13.0276" r="0.75" fill="#ADADAD"/>
</g>
</g>
</g>
</svg>
