<svg width="20" height="19" viewBox="0 0 20 19" fill="none" xmlns="http://www.w3.org/2000/svg">
<path id="favourite (1)" d="M19.1447 7.53673C19.0063 7.11075 18.594 6.81807 18.0137 6.73371L13.2835 6.04628L11.1681 1.76024C10.9086 1.23428 10.5029 0.932678 10.055 0.932678C9.6071 0.932678 9.20134 1.23428 8.9417 1.76024L6.82657 6.04628L2.09612 6.73371C1.51577 6.81807 1.10346 7.11075 0.965133 7.53673C0.826811 7.96271 0.98828 8.44182 1.40827 8.85107L4.83119 12.1874L4.02301 16.8986C3.91969 17.5011 4.0958 17.8622 4.26173 18.059C4.45652 18.2899 4.74028 18.4171 5.06099 18.4171C5.30249 18.4171 5.5592 18.3465 5.82413 18.2072L10.0549 15.9829L14.2859 18.2072C14.5508 18.3465 14.8075 18.4171 15.0489 18.4172C15.3696 18.4172 15.6536 18.2899 15.8483 18.059C16.0142 17.8622 16.1903 17.5011 16.0869 16.8986L15.279 12.1874L18.7016 8.85121C19.1216 8.44182 19.2831 7.96271 19.1447 7.53673ZM17.9543 8.0843L14.33 11.6171C14.2038 11.7401 14.1462 11.9175 14.1761 12.0911L15.0315 17.0797C15.0565 17.2249 15.0458 17.3073 15.0359 17.3458C14.9976 17.3433 14.9157 17.3285 14.7843 17.2595L10.3042 14.9041C10.2261 14.8631 10.1406 14.8426 10.055 14.8426C9.96937 14.8426 9.88375 14.8631 9.80581 14.9041L5.32594 17.2593C5.19459 17.3284 5.11246 17.3433 5.07426 17.3458C5.0645 17.3073 5.05362 17.2249 5.07858 17.0797L5.93431 12.0912C5.96401 11.9175 5.90643 11.7401 5.78023 11.6172L2.15583 8.08431C2.05041 7.98154 2.01067 7.90861 1.99589 7.87166C2.0295 7.85047 2.10451 7.81477 2.25023 7.79358L7.25925 7.06571C7.43369 7.04033 7.58442 6.93074 7.66237 6.77275L9.90216 2.23417C9.96742 2.10212 10.0244 2.04188 10.0551 2.01637C10.0857 2.04188 10.1428 2.10212 10.2079 2.23417L12.4479 6.77275C12.526 6.93074 12.6767 7.04033 12.8511 7.06571L17.8598 7.79358C18.0056 7.81477 18.0805 7.85047 18.1141 7.87166C18.0993 7.90847 18.0597 7.98154 17.9543 8.0843Z" fill="white" stroke="white" stroke-width="0.6"/>
</svg>
