<svg width="31" height="31" viewBox="0 0 31 31" fill="none" xmlns="http://www.w3.org/2000/svg">
<g id="Group 17472">
<path id="Rectangle 16974" opacity="0.4" d="M0 5C0 2.23858 2.23858 0 5 0H26C28.7614 0 31 2.23858 31 5V26C31 28.7614 28.7614 31 26 31H5C2.23858 31 0 28.7614 0 26V5Z" fill="white"/>
<path id="bookmark (1)" d="M20.4048 7.0921H10.6481C9.85347 7.0921 9.15576 7.7458 9.15576 8.51956V22.9527C9.15576 23.2117 9.22785 23.4276 9.34403 23.5943C9.48297 23.7937 9.70668 23.908 9.94657 23.9079C10.1734 23.9079 10.4149 23.807 10.6379 23.6165L15.003 19.9102C15.1378 19.7951 15.3315 19.7291 15.5328 19.7291C15.7341 19.7291 15.9274 19.7951 16.0626 19.9106L20.4131 23.6159C20.6369 23.807 20.8618 23.908 21.0882 23.908C21.471 23.908 21.8442 23.6127 21.8442 22.9528V8.51956C21.8442 7.7458 21.1994 7.0921 20.4048 7.0921Z" fill="#FEC115"/>
</g>
</svg>
