<svg width="257" height="4" viewBox="0 0 257 4" fill="none" xmlns="http://www.w3.org/2000/svg">
<g id="Group 17446">
<path id="Rectangle 16976" d="M0.260254 2C0.260254 0.895431 1.15568 0 2.26025 0H254.26C255.365 0 256.26 0.895431 256.26 2V2C256.26 3.10457 255.365 4 254.26 4H2.26025C1.15568 4 0.260254 3.10457 0.260254 2V2Z" fill="#F3F3F3"/>
<path id="Rectangle 16977" d="M0.260254 2C0.260254 0.895431 1.15568 0 2.26025 0H128.26C129.365 0 130.26 0.895431 130.26 2V2C130.26 3.10457 129.365 4 128.26 4H2.26025C1.15568 4 0.260254 3.10457 0.260254 2V2Z" fill="#F5AF19"/>
</g>
</svg>
