<svg width="38" height="38" viewBox="0 0 38 38" fill="none" xmlns="http://www.w3.org/2000/svg">
<g id="Group 17416">
<g id="lifesaver">
<g id="Group 17415">
<path id="Path 19507" d="M25.7518 12.2507C24.0346 10.5335 21.7515 9.58783 19.323 9.58783C16.8946 9.58783 14.6115 10.5335 12.8943 12.2507C11.1771 13.9679 10.2314 16.251 10.2314 18.6794C10.2314 21.1079 11.1771 23.391 12.8943 25.1082C14.6115 26.8253 16.8946 27.771 19.323 27.771C21.7515 27.771 24.0346 26.8253 25.7518 25.1082C27.4689 23.391 28.4146 21.1079 28.4146 18.6794C28.4146 16.251 27.4689 13.9679 25.7518 12.2507ZM19.323 10.6532C21.3445 10.6532 23.1936 11.4048 24.6063 12.6427L22.127 15.122C21.3551 14.5123 20.3809 14.1479 19.323 14.1479C18.2652 14.1479 17.291 14.5123 16.5191 15.122L14.0398 12.6427C15.4524 11.4048 17.3015 10.6532 19.323 10.6532ZM22.7891 18.6794C22.7891 20.5906 21.2343 22.1455 19.323 22.1455C17.4118 22.1455 15.8569 20.5906 15.8569 18.6794C15.8569 16.7682 17.4118 15.2133 19.323 15.2133C21.2343 15.2133 22.7891 16.7682 22.7891 18.6794ZM11.2969 18.6794C11.2969 16.6579 12.0484 14.8088 13.2864 13.3961L15.7657 15.8754C15.156 16.6473 14.7915 17.6216 14.7915 18.6795C14.7915 19.7372 15.1559 20.7115 15.7657 21.4834L13.2863 23.9628C12.0484 22.55 11.2969 20.7009 11.2969 18.6794ZM19.323 26.7056C17.3015 26.7056 15.4524 25.954 14.0396 24.7161L16.519 22.2367C17.2909 22.8465 18.2652 23.2109 19.323 23.2109C20.3808 23.2109 21.3551 22.8465 22.127 22.2367L24.6064 24.716C23.1937 25.954 21.3446 26.7056 19.323 26.7056ZM25.3597 23.9627L22.8804 21.4834C23.4901 20.7114 23.8545 19.7372 23.8545 18.6794C23.8545 17.6216 23.4901 16.6473 22.8804 15.8754L25.3597 13.3961C26.5977 14.8088 27.3492 16.6579 27.3492 18.6794C27.3492 20.7009 26.5977 22.55 25.3597 23.9627Z" fill="#707177" stroke="#707177" stroke-width="0.5"/>
</g>
</g>
<path id="Rectangle 16968" d="M4 0.5H34C35.933 0.5 37.5 2.067 37.5 4V34C37.5 35.933 35.933 37.5 34 37.5H4C2.067 37.5 0.5 35.933 0.5 34V4C0.5 2.067 2.067 0.5 4 0.5Z" stroke="#E9E9E9"/>
</g>
</svg>
