<svg width="32" height="31" viewBox="0 0 32 31" fill="none" xmlns="http://www.w3.org/2000/svg">
<g id="Group 17472">
<path id="Rectangle 16974" opacity="0.4" d="M0.74707 5C0.74707 2.23858 2.98565 0 5.74707 0H26.7471C29.5085 0 31.7471 2.23858 31.7471 5V26C31.7471 28.7614 29.5085 31 26.7471 31H5.74707C2.98565 31 0.74707 28.7614 0.74707 26V5Z" fill="white"/>
<path id="bookmark (1)" d="M21.1519 7.0921H11.3952C10.6005 7.0921 9.90283 7.7458 9.90283 8.51956V22.9527C9.90283 23.2117 9.97492 23.4276 10.0911 23.5943C10.23 23.7937 10.4538 23.908 10.6936 23.9079C10.9204 23.9079 11.1619 23.807 11.3849 23.6165L15.7501 19.9102C15.8849 19.7951 16.0786 19.7291 16.2799 19.7291C16.4812 19.7291 16.6744 19.7951 16.8096 19.9106L21.1602 23.6159C21.384 23.807 21.6088 23.908 21.8352 23.908C22.2181 23.908 22.5913 23.6127 22.5913 22.9528V8.51956C22.5913 7.7458 21.9465 7.0921 21.1519 7.0921Z" stroke="#FEC115" stroke-width="2"/>
</g>
</svg>
