<svg width="148" height="35" viewBox="0 0 148 35" fill="none" xmlns="http://www.w3.org/2000/svg">
<g id="Group 17411">
<g id="g14">
<g id="g20">
<path id="path22" d="M69.8256 31.4217C69.8481 31.3997 69.874 31.38 69.9025 31.3634C70.0905 31.2535 70.332 31.317 70.4416 31.5046L71.6 33.4885C71.7104 33.6768 71.6484 33.9188 71.4589 34.0274C71.2709 34.1373 71.0295 34.074 70.9201 33.8861L69.7612 31.9022C69.6677 31.7423 69.6994 31.5451 69.8256 31.4217Z" fill="#002C62"/>
</g>
<g id="g24">
<path id="path26" d="M72.1901 31.4492C72.3166 31.3259 72.5148 31.2993 72.6718 31.3961C72.8576 31.5098 72.915 31.7527 72.8007 31.9384L71.5951 33.8941C71.4826 34.0805 71.2392 34.1375 71.0532 34.0226C70.8679 33.9091 70.8105 33.6662 70.9247 33.4804L72.1296 31.5246C72.1472 31.4966 72.1674 31.4713 72.1901 31.4492Z" fill="#002C62"/>
</g>
</g>
<path id="Path 19505" d="M66.4058 0.754822L53.6315 13.2305L71.2539 34.2452L89.2983 13.6523L76.7023 0.754822H66.4058Z" fill="black"/>
<g id="g30">
<g id="g36">
<path id="path38" d="M70.0936 5.81719C70.1662 5.74672 70.265 5.704 70.3737 5.7051C70.5917 5.70769 70.7655 5.88582 70.7628 6.10378L70.4955 31.7082C70.4928 31.9261 70.3146 32.1001 70.0966 32.0975C69.879 32.0948 69.705 31.9166 69.7072 31.6988L69.975 6.0942C69.9762 5.98534 70.0216 5.88765 70.0936 5.81719Z" fill="#002C62"/>
</g>
<g id="g40">
<path id="path42" d="M72.4576 5.8452C72.5298 5.77459 72.6289 5.7318 72.7378 5.73322C72.9554 5.73566 73.1294 5.91396 73.127 6.13181L72.8594 31.7361C72.8567 31.9541 72.6785 32.128 72.4607 32.1255C72.2427 32.1229 72.0686 31.9447 72.0713 31.7268L72.3389 6.12256C72.3401 6.01322 72.3858 5.91538 72.4576 5.8452Z" fill="#002C62"/>
</g>
<g id="g46">
<path id="path48" d="M71.2331 9.47241C71.3054 9.40191 71.4047 9.35904 71.5131 9.36029C71.7312 9.36291 71.9052 9.54113 71.9026 9.759L71.7148 25.6009C71.7119 25.8186 71.5337 25.9927 71.3159 25.9902C71.0981 25.9875 70.9243 25.8095 70.9267 25.5916L71.1145 9.74969C71.1154 9.64083 71.1611 9.54284 71.2331 9.47241Z" fill="black"/>
</g>
<g id="g54">
<path id="path56" d="M0.0233002 10.8823H10.5112L11.8163 14.7978L9.85857 15.4736L8.94965 12.9565H4.47484V16.5457H8.57672V18.5967H4.47484V22.5354H9.509L10.3713 20.1349L12.3291 20.8108L11.0239 24.6097H0V22.5354H2.07426L2.09756 12.9565H0.0233002V10.8823Z" fill="#002C62"/>
</g>
<g id="g58">
<path id="path60" d="M13.1913 10.8823H19.2744V12.9565H17.806L20.0435 18.7598L21.0922 22.0927L22.0711 18.8531L24.192 12.9565H22.6537V10.8823H28.4338V12.9565H26.5226L22.3275 24.6097H19.787L15.219 12.9565H13.1913V10.8823Z" fill="#002C62"/>
</g>
<g id="g62">
<path id="path64" d="M29.5289 10.8823H40.0168L41.322 14.7978L39.3643 15.4736L38.4553 12.9565H33.9805V16.5457H38.0823V18.5967H33.9805V22.5354H39.0146L39.877 20.1349L41.8347 20.8108L40.5295 24.6097H29.5056V22.5354H31.5798L31.6033 12.9565H29.5289V10.8823Z" fill="#002C62"/>
</g>
<g id="g66">
<path id="path68" d="M43.536 10.8823H49.2229L54.5599 21.1371V12.9565H52.7188V10.8823H58.9882V12.9565H56.774V24.6097H53.954L47.8011 12.9332L47.8243 22.5354H49.7821V24.6097H43.5127V22.5354H45.6104L45.5869 12.9565H43.536V10.8823Z" fill="#002C62"/>
</g>
<g id="g70">
<path id="path72" d="M83.2496 10.8823H90.0551V12.9565H87.8641L87.8407 22.5354H90.0551V24.6097H83.2262V22.5354H85.4635V12.9565H83.2496V10.8823Z" fill="#F5AF19"/>
</g>
<g id="g74">
<path id="path76" d="M91.7096 10.8823H103.968V15.2173H101.824V12.9565H99.0511L99.028 22.5354H101.079V24.6097H94.5531V22.5354H96.6271V12.9565H93.8771V15.2173H91.7096V10.8823Z" fill="#F5AF19"/>
</g>
<g id="g78">
<path id="path80" d="M109.166 18.7365H112.732L111.008 13.4227L109.166 18.7365ZM103.409 24.6097V22.5354H105.67L109.33 12.9565H107.208V10.8823H112.219L116.484 22.5354H118.629V24.6097H112.732V22.5354H114.061L113.338 20.4845H108.537L107.791 22.5354H109.189V24.6097H103.409Z" fill="#F5AF19"/>
</g>
<g id="g82">
<path id="path84" d="M119.77 10.8823H125.457L130.794 21.1371V12.9565H128.953V10.8823H135.222V12.9565H133.008V24.6097H130.188L124.035 12.9332L124.058 22.5354H126.016V24.6097H119.747V22.5354H121.844L121.821 12.9565H119.77V10.8823Z" fill="#F5AF19"/>
</g>
<g id="g86">
<path id="path88" d="M137.32 24.1436L136.877 21.0904L138.834 20.8574L139.114 22.5821C140.139 22.924 141.181 23.0948 142.237 23.0948C143.185 23.0948 143.965 22.9124 144.58 22.5471C145.193 22.1822 145.5 21.6188 145.5 20.8574C145.5 20.2671 145.329 19.7893 144.987 19.4241C144.645 19.0592 144.032 18.8064 143.146 18.6666L141.422 18.387C140.038 18.1695 138.986 17.719 138.264 17.0352C137.542 16.3516 137.18 15.466 137.18 14.3782C137.18 13.1663 137.654 12.2108 138.602 11.5116C139.549 10.8123 140.823 10.4628 142.424 10.4628C143.263 10.4628 144.024 10.5291 144.708 10.6609C145.391 10.7931 146.09 11.0068 146.805 11.3018L147.225 14.5181L145.197 14.7278L144.894 12.7235C144.117 12.4751 143.278 12.3506 142.377 12.3506C141.429 12.3506 140.683 12.5177 140.139 12.8517C139.596 13.1859 139.324 13.6481 139.324 14.2384C139.324 14.8291 139.522 15.2871 139.918 15.6135C140.314 15.9398 140.932 16.1652 141.771 16.2894L143.659 16.6157C146.363 17.0198 147.714 18.3327 147.714 20.5544C147.714 22.0773 147.19 23.2037 146.141 23.9338C145.093 24.664 143.83 25.0292 142.354 25.0292C140.521 25.0292 138.842 24.7339 137.32 24.1436Z" fill="#F5AF19"/>
</g>
<g id="g90">
<path id="path92" d="M61.8876 7.90118C62.0673 25.4772 71.3329 31.1382 71.3329 31.1382C71.3329 31.1382 80.5111 25.4853 80.7665 7.90118H61.8876Z" fill="#F5AF19"/>
</g>
<g id="g94">
<path id="path96" d="M71.3238 29.282C69.2681 27.5707 63.9349 21.9505 63.4131 9.38815H79.2342C78.6588 21.8953 73.3421 27.5677 71.3238 29.282Z" fill="white"/>
</g>
<g id="g98">
<path id="path100" d="M71.3482 6.59552C71.4073 6.59552 71.4659 6.59702 71.5233 6.59998C71.5809 6.59702 71.6392 6.59552 71.6985 6.59552C72.3963 6.59552 73.1944 6.80645 73.9815 7.09341C74.5735 5.87794 75.7291 3.96548 75.7291 3.96548C75.0135 3.77079 74.5137 4.37059 74.5137 4.37059C73.9715 3.99183 73.9085 4.581 73.9085 4.581C73.6456 4.823 73.8087 5.05988 73.8087 5.05988C73.856 4.79147 74.2347 4.91784 74.2347 4.91784C74.2137 5.71754 73.4771 5.87542 73.1033 5.85447C72.73 5.83342 73.0296 5.14935 73.0296 5.14935C72.8668 5.23869 72.6719 5.71754 72.272 5.60183C71.8724 5.48608 71.9669 4.29696 72.0037 4.09166C72.0406 3.88644 72.1089 3.67072 72.4088 3.67609C72.7088 3.68122 72.4879 4.12325 72.4879 4.12325C73.0562 4.23891 72.8353 3.59725 72.8353 3.59725C72.5352 2.87109 72.0091 3.51287 71.9249 3.6971C71.8406 3.88119 71.7774 3.70241 71.7774 3.70241C71.8089 3.10263 72.2877 2.9026 72.2877 2.9026C72.188 2.63955 71.6566 2.91303 71.6566 2.91303V2.65524C71.9722 2.57633 71.8299 2.38691 71.8299 2.38691C71.6566 2.18181 71.5301 1.4082 71.5301 1.4082C71.5301 1.4082 71.4041 2.18181 71.2303 2.38691C71.2303 2.38691 71.0882 2.57633 71.4041 2.65524V2.91303C71.4041 2.91303 70.8724 2.63955 70.7728 2.9026C70.7728 2.9026 71.2513 3.10263 71.283 3.70241C71.283 3.70241 71.2198 3.88119 71.1356 3.6971C71.0513 3.51287 70.525 2.87109 70.2252 3.59725C70.2252 3.59725 70.0042 4.23891 70.5726 4.12325C70.5726 4.12325 70.3516 3.68122 70.6514 3.67609C70.9515 3.67072 71.0198 3.88644 71.0567 4.09166C71.0933 4.29696 71.1883 5.48608 70.7881 5.60183C70.3885 5.71754 70.1937 5.23869 70.0306 5.14935C70.0306 5.14935 70.3304 5.83342 69.9568 5.85447C69.5833 5.87542 68.8467 5.71754 68.8257 4.91784C68.8257 4.91784 69.2044 4.79147 69.2518 5.05988C69.2518 5.05988 69.4149 4.823 69.1517 4.581C69.1517 4.581 69.0889 3.99183 68.5472 4.37059C68.5472 4.37059 68.0467 3.77079 67.3314 3.96548C67.3314 3.96548 68.4847 5.87464 69.0772 7.09025C69.8594 6.80486 70.6531 6.59552 71.3482 6.59552Z" fill="#002C62"/>
</g>
<g id="g102">
<path id="path104" d="M70.8122 12.5044L70.7936 27.2526L68.8466 25.3993V12.5044H66.6159V14.3378H64.8578V10.822H70.8115" fill="#002C62"/>
</g>
<g id="g106">
<path id="path108" d="M71.9011 10.822H77.8544V14.3378H76.0964V12.5043H73.8657V25.3993L71.9186 27.2526L71.9001 12.5043" fill="#F5AF19"/>
</g>
</g>
</g>
</svg>
