<svg width="21" height="17" viewBox="0 0 21 17" fill="none" xmlns="http://www.w3.org/2000/svg">
<path id="mail-inbox-app" d="M15.5319 16.0728H5.11456C2.58039 16.0728 0.518677 14.0111 0.518677 11.477V5.19592C0.518677 2.66175 2.58039 0.600037 5.11456 0.600037H15.5319C18.0661 0.600037 20.1278 2.66175 20.1278 5.19592V11.477C20.1278 14.0111 18.0661 16.0728 15.5319 16.0728ZM5.11456 2.132C3.42511 2.132 2.05064 3.50647 2.05064 5.19592V11.477C2.05064 13.1664 3.42511 14.5409 5.11456 14.5409H15.5319C17.2213 14.5409 18.5958 13.1664 18.5958 11.477V5.19592C18.5958 3.50647 17.2213 2.132 15.5319 2.132H5.11456ZM13.13 9.69246L16.9161 6.80042C17.2522 6.54362 17.3166 6.06293 17.0598 5.72675C16.803 5.39055 16.3223 5.32621 15.9861 5.58301L12.2005 8.4747C11.1074 9.30843 9.58088 9.30904 8.48706 8.4768L4.81874 5.62526C4.48473 5.36558 4.00347 5.4259 3.74388 5.75991C3.48425 6.09392 3.54453 6.57514 3.87854 6.83477L7.54969 9.68851C7.55153 9.68996 7.5534 9.69138 7.55528 9.69281C8.3758 10.3186 9.35894 10.6315 10.3423 10.6315C11.3257 10.6315 12.3092 10.3184 13.13 9.69246Z" fill="#707177"/>
</svg>
