<svg width="15" height="18" viewBox="0 0 15 18" fill="none" xmlns="http://www.w3.org/2000/svg">
<g id="place (1)">
<g id="Group 17425">
<g id="Group 17424">
<path id="Path 19509" d="M13.1429 3.23331C11.8451 1.35501 9.78824 0.277527 7.50017 0.277527C5.2121 0.277527 3.15526 1.35501 1.85745 3.23331C0.566004 5.10213 0.267805 7.46809 1.05818 9.5584C1.26958 10.1292 1.60563 10.6838 2.05461 11.2035L7.04765 17.0684C7.16057 17.2011 7.32603 17.2776 7.50017 17.2776C7.67433 17.2776 7.83978 17.2011 7.9527 17.0684L12.9443 11.2051C13.3953 10.6824 13.7309 10.1284 13.9406 9.56219C14.7325 7.46809 14.4343 5.10213 13.1429 3.23331ZM12.8275 9.14589C12.6658 9.58278 12.4019 10.0147 12.0434 10.4302L12.0407 10.4334L7.50017 15.7664L2.9569 10.43C2.59868 10.0149 2.33474 9.58301 2.17148 9.14194C1.51784 7.41321 1.76591 5.457 2.83525 3.90937C3.90795 2.35678 5.60835 1.46634 7.50017 1.46634C9.39197 1.46634 11.0922 2.35675 12.1649 3.90937C13.2344 5.457 13.4827 7.41321 12.8275 9.14589Z" fill="#ADADAD"/>
</g>
</g>
<g id="Group 17427">
<g id="Group 17426">
<path id="Path 19510" d="M7.5002 3.80435C5.66486 3.80435 4.17151 5.29752 4.17151 7.13306C4.17151 8.9686 5.66467 10.4617 7.5002 10.4617C9.33575 10.4617 10.8289 8.9686 10.8289 7.13306C10.8289 5.29771 9.33554 3.80435 7.5002 3.80435ZM7.5002 9.2729C6.3203 9.2729 5.36032 8.31293 5.36032 7.13303C5.36032 5.95311 6.3203 4.99313 7.5002 4.99313C8.68011 4.99313 9.64008 5.95311 9.64008 7.13303C9.64008 8.31293 8.68011 9.2729 7.5002 9.2729Z" fill="#ADADAD"/>
</g>
</g>
</g>
</svg>
