<svg width="18" height="18" viewBox="0 0 18 18" fill="none" xmlns="http://www.w3.org/2000/svg">
<g id="user (26)">
<g id="Group 17418">
<path id="Path 19508" d="M14.8557 11.7161C13.9364 10.7968 12.8423 10.1163 11.6484 9.70436C12.9271 8.82372 13.7671 7.3499 13.7671 5.68337C13.7671 2.99285 11.5782 0.803925 8.88763 0.803925C6.19711 0.803925 4.00819 2.99285 4.00819 5.68337C4.00819 7.3499 4.84821 8.82372 6.12685 9.70436C4.93304 10.1163 3.83886 10.7968 2.91957 11.7161C1.32545 13.3102 0.44751 15.4297 0.44751 17.6842H1.76628C1.76628 13.7574 4.9609 10.5628 8.88763 10.5628C12.8144 10.5628 16.009 13.7574 16.009 17.6842H17.3278C17.3278 15.4297 16.4498 13.3102 14.8557 11.7161ZM8.88763 9.24405C6.92428 9.24405 5.32695 7.64675 5.32695 5.68337C5.32695 3.71999 6.92428 2.12269 8.88763 2.12269C10.851 2.12269 12.4483 3.71999 12.4483 5.68337C12.4483 7.64675 10.851 9.24405 8.88763 9.24405Z" fill="#707177" stroke="#707177" stroke-width="0.4"/>
</g>
</g>
</svg>
